<?xml version="1.0" encoding="UTF-8" standalone="no"?>
<!-- Created with Inkscape (http://www.inkscape.org/) -->

<svg
   width="400.37201mm"
   height="114.10876mm"
   viewBox="0 0 400.37201 114.10876"
   version="1.1"
   id="svg1"
   xml:space="preserve"
   sodipodi:docname="modest.svg"
   inkscape:version="1.4.3 (0d15f75042, 2025-12-25)"
   xmlns:inkscape="http://www.inkscape.org/namespaces/inkscape"
   xmlns:sodipodi="http://sodipodi.sourceforge.net/DTD/sodipodi-0.dtd"
   xmlns="http://www.w3.org/2000/svg"
   xmlns:svg="http://www.w3.org/2000/svg"><sodipodi:namedview
     id="namedview1"
     pagecolor="#ffffff"
     bordercolor="#000000"
     borderopacity="0.25"
     inkscape:showpageshadow="2"
     inkscape:pageopacity="0.0"
     inkscape:pagecheckerboard="0"
     inkscape:deskcolor="#d1d1d1"
     inkscape:document-units="mm"
     inkscape:zoom="0.29702061"
     inkscape:cx="141.40433"
     inkscape:cy="1114.4008"
     inkscape:window-width="1920"
     inkscape:window-height="1025"
     inkscape:window-x="0"
     inkscape:window-y="0"
     inkscape:window-maximized="1"
     inkscape:current-layer="svg1" /><defs
     id="defs1" /><g
     id="g4"
     transform="translate(-30.512915,-90.39521)"><path
       style="fill:#ffd42a;stroke:#bf9900;stroke-width:4.4;stroke-dasharray:none;stroke-opacity:1"
       id="path2"
       d="m 61.094239,90.643082 -29.647785,-1e-6 -14.823892,-25.675736 14.823894,-25.675735 29.647785,2e-6 14.823892,25.675736 z"
       transform="translate(16.430694,82.477499)" /><path
       style="fill:#d40000;stroke:#910000;stroke-width:4.4;stroke-dasharray:none;stroke-opacity:1"
       id="path3"
       d="m 61.094239,90.643082 -29.647785,-1e-6 -14.823892,-25.675736 14.823894,-25.675735 29.647785,2e-6 14.823892,25.675736 z"
       transform="translate(67.044787,53.303599)" /><path
       style="fill:#00aad4;stroke:#006d88;stroke-width:4.4;stroke-dasharray:none;stroke-opacity:1"
       id="path4"
       d="m 61.094239,90.643082 -29.647785,-1e-6 -14.823892,-25.675736 14.823894,-25.675735 29.647785,2e-6 14.823892,25.675736 z"
       transform="translate(67.044787,111.66089)" /></g><path
     style="font-style:italic;font-weight:300;font-size:71.8397px;font-family:'Adwaita Sans';-inkscape-font-specification:'Adwaita Sans Light Italic';fill:#3f3f3f;stroke-width:56.0011"
     d="m 140.14365,82.819153 8.62918,-52.266187 h 6.38419 l 8.80458,36.481097 q 0.28062,1.157573 0.6314,2.665926 0.35078,1.473275 0.70156,3.086862 0.38586,1.578509 0.70156,3.051784 0.3157,1.473275 0.56125,2.525615 l -1.19265,-0.280624 q 0.59632,-1.05234 1.36804,-2.525615 0.80679,-1.473275 1.68374,-3.051784 0.87695,-1.578509 1.68374,-3.086862 0.8068,-1.508353 1.4382,-2.630848 l 20.80124,-36.235551 h 6.55958 l -8.62918,52.266187 h -4.66537 l 5.54232,-33.639781 q 0.28062,-1.578509 0.56125,-3.332408 0.3157,-1.753899 0.6314,-3.577954 0.35078,-1.824055 0.66648,-3.648109 0.35078,-1.859133 0.66648,-3.64811 l 0.77172,0.280624 q -1.1225,2.104678 -2.24499,4.139201 -1.08742,1.999445 -2.0696,3.8235 -0.98219,1.824055 -1.89421,3.402564 -0.87695,1.578509 -1.57851,2.841316 l -19.4332,33.359157 h -3.99889 L 154.8764,49.21445 q -0.38586,-1.718821 -0.91203,-3.963812 -0.52617,-2.24499 -1.12249,-4.84076 -0.59633,-2.630849 -1.22773,-5.437087 l 0.87695,0.280624 q -0.24555,1.788977 -0.52617,3.648109 -0.28063,1.824055 -0.56125,3.64811 -0.24555,1.824055 -0.52617,3.577954 -0.24555,1.753899 -0.52617,3.332408 l -5.50724,33.359157 z m 74.99671,0.736637 q -4.41982,0 -7.61192,-1.929288 -3.19209,-1.929289 -4.91091,-5.366931 -1.71882,-3.437642 -1.71882,-7.962701 0,-4.419825 1.43819,-8.559027 1.4382,-4.174279 4.10413,-7.471609 2.66592,-3.332408 6.38419,-5.261697 3.71826,-1.964366 8.20825,-1.964366 4.41982,0 7.61192,1.929288 3.19209,1.929289 4.91091,5.402009 1.71882,3.437642 1.71882,7.997779 0,4.454903 -1.43819,8.629183 -1.4382,4.139201 -4.10413,7.436531 -2.66592,3.262252 -6.38419,5.191541 -3.68319,1.929288 -8.20825,1.929288 z m 0.14032,-4.139201 q 3.64811,0 6.48942,-1.613587 2.8764,-1.648665 4.87584,-4.419825 2.03452,-2.77116 3.08686,-6.173724 1.05234,-3.402564 1.05234,-6.910362 0,-3.437642 -1.15757,-5.928178 -1.1225,-2.490537 -3.33241,-3.8235 -2.20991,-1.368041 -5.36693,-1.368041 -3.57795,0 -6.45435,1.648665 -2.84131,1.613587 -4.87584,4.384747 -2.03452,2.736082 -3.12194,6.173724 -1.08741,3.402564 -1.08741,7.015596 0,5.086307 2.56069,8.067935 2.56069,2.94655 7.3313,2.94655 z m 37.77898,4.069045 q -6.24388,0 -9.92707,-4.069045 -3.6481,-4.104123 -3.6481,-10.909251 0,-4.419825 1.36804,-8.594105 1.36804,-4.174279 3.89365,-7.506687 2.56069,-3.332408 6.13865,-5.296775 3.57795,-1.999444 7.9627,-1.999444 2.84132,0 5.22662,0.982183 2.3853,0.947105 3.99889,2.701004 1.64866,1.753899 2.28007,4.104124 h 0.0351 l 3.68319,-22.344672 h 4.52506 l -8.62918,52.266187 h -4.41983 l 1.1225,-6.94544 h -0.0351 q -1.54343,2.455459 -3.68319,4.17428 -2.13975,1.683743 -4.66537,2.560692 -2.49054,0.876949 -5.22662,0.876949 z m 0.73664,-4.139201 q 3.57795,0 6.41927,-1.613587 2.87639,-1.613587 4.87584,-4.349669 1.99944,-2.736083 3.05178,-6.138646 1.08742,-3.437642 1.08742,-6.980518 0,-5.156463 -2.59577,-8.103013 -2.59577,-2.94655 -7.29622,-2.94655 -3.57795,0 -6.41927,1.648665 -2.84132,1.613587 -4.84076,4.384747 -1.96437,2.736082 -3.01671,6.173724 -1.05234,3.402564 -1.05234,7.015596 0,5.261697 2.66593,8.103013 2.66593,2.806238 7.12083,2.806238 z m 40.09413,4.209357 q -4.24443,0 -7.43653,-1.683743 -3.19209,-1.71882 -4.98107,-5.156462 -1.7539,-3.47272 -1.7539,-8.664261 0,-4.910917 1.50835,-9.085196 1.50836,-4.209358 4.24444,-7.331298 2.73608,-3.12194 6.45435,-4.84076 3.71826,-1.753899 8.10301,-1.753899 3.85858,0 6.59466,1.297885 2.77116,1.297885 4.24443,3.648109 1.50836,2.350225 1.50836,5.472165 0,3.507798 -1.96437,5.752788 -1.92929,2.244991 -5.71771,3.47272 -3.75334,1.192651 -9.22551,1.683743 -5.43708,0.491092 -12.48776,0.491092 l 0.56125,-3.928734 q 6.48943,0 11.08464,-0.315701 4.63029,-0.315702 7.54177,-1.122496 2.91147,-0.841871 4.27951,-2.280068 1.40312,-1.473275 1.40312,-3.683188 0,-2.77116 -2.0696,-4.560137 -2.0696,-1.788977 -6.13865,-1.788977 -3.8235,0 -6.73497,1.613587 -2.87639,1.578509 -4.84076,4.314591 -1.92929,2.701005 -2.91147,6.103568 -0.98219,3.402564 -0.98219,7.050674 0,3.12194 0.94711,5.682632 0.98218,2.525615 3.15702,4.033968 2.20991,1.473275 5.82294,1.473275 4.41983,0 7.61192,-2.104679 3.22718,-2.139756 4.70045,-5.54232 h 4.56014 q -1.89421,5.19154 -6.38419,8.48887 -4.45491,3.262252 -10.69879,3.262252 z m 34.62196,0 q -3.78842,0 -6.62974,-1.157573 -2.84131,-1.192651 -4.41982,-3.47272 -1.57851,-2.280068 -1.57851,-5.612476 0,-0.385858 0,-0.771716 0.0351,-0.385857 0.0702,-0.806793 h 4.4549 q -0.3157,3.823499 1.78898,5.858022 2.10467,1.999445 6.27895,1.999445 2.91148,0 5.36693,-1.017261 2.49054,-1.017262 4.03397,-2.806239 1.54343,-1.824055 1.54343,-4.209357 0,-1.859133 -1.43819,-2.876394 -1.4382,-1.05234 -3.96382,-1.683743 l -5.8931,-1.438197 q -4.27951,-1.05234 -6.55958,-3.12194 -2.24499,-2.104679 -2.24499,-5.331853 0,-3.64811 2.03452,-6.349114 2.03453,-2.701004 5.40201,-4.209357 3.36749,-1.508353 7.29622,-1.508353 5.36693,0 8.55903,2.665926 3.22717,2.665926 3.22717,7.401453 0,0.456014 -0.0351,0.87695 0,0.385857 -0.0702,0.876949 h -4.41983 q 0.45602,-3.788421 -1.50835,-5.822944 -1.96437,-2.034523 -5.78787,-2.034523 -2.80623,0 -5.15646,1.052339 -2.31514,1.017262 -3.68319,2.806239 -1.36804,1.788977 -1.36804,3.998889 0,1.859133 1.4382,2.981628 1.47328,1.122496 4.17428,1.788977 l 5.8931,1.438197 q 4.27951,1.017262 6.45435,2.981628 2.17483,1.964367 2.17483,5.121385 0,2.876394 -1.22773,5.156463 -1.22773,2.280068 -3.40256,3.928733 -2.17484,1.613587 -4.946,2.455459 -2.77116,0.841871 -5.85802,0.841871 z m 41.85968,-37.778982 -0.66648,3.963812 h -18.52118 l 0.63141,-3.963812 z M 359.8136,35.674351 h 4.52506 l -6.41927,38.831321 q -0.38586,2.385303 0.45601,3.367486 0.84187,0.982183 3.33241,0.982183 0.77171,0 1.61358,0 0.87695,0 1.61359,0 l -0.66648,3.963812 q -0.84187,0 -1.78898,0 -0.9471,0 -1.78897,0 -4.3146,0 -6.17373,-1.999445 -1.82405,-1.999445 -1.19265,-5.8931 z"
     id="text4"
     aria-label="Modest" /><path
     d="m 272.53584,94.509489 0.22358,-1.363856 h 12.62126 l -0.23476,1.363856 h -5.54486 l -2.52648,15.293081 h -1.50919 l 2.52649,-15.293081 z m 18.16241,15.550201 q -1.90046,0 -3.28667,-0.84962 -1.37504,-0.84961 -2.12404,-2.36998 -0.749,-1.53154 -0.749,-3.54379 0,-1.95635 0.62603,-3.812089 0.63721,-1.855739 1.79984,-3.342566 1.17381,-1.486827 2.79479,-2.36998 1.62098,-0.883153 3.59969,-0.883153 1.90045,0 3.27549,0.860795 1.38621,0.849615 2.13522,2.36998 0.749,1.520364 0.749,3.54379 0,1.967533 -0.63721,3.823273 -0.62604,1.84456 -1.79985,3.33138 -1.17381,1.48683 -2.79478,2.36998 -1.6098,0.87198 -3.58851,0.87198 z m 0.0559,-1.43093 q 1.65452,0 2.99602,-0.76019 1.34149,-0.76018 2.29172,-2.04578 0.96141,-1.29678 1.46447,-2.88422 0.51424,-1.59862 0.51424,-3.253134 0,-1.71041 -0.60367,-2.906579 -0.5925,-1.196169 -1.65452,-1.822202 -1.06202,-0.637211 -2.45941,-0.637211 -1.66569,0 -3.00719,0.771361 -1.3415,0.760182 -2.29173,2.056964 -0.95022,1.296781 -1.46447,2.895401 -0.50306,1.58744 -0.50306,3.24195 0,1.68805 0.5925,2.88422 0.59249,1.19617 1.65451,1.83338 1.0732,0.62604 2.47059,0.62604 z m 16.61222,1.43093 q -1.90045,0 -3.28667,-0.84962 -1.37503,-0.84961 -2.12404,-2.36998 -0.749,-1.53154 -0.749,-3.54379 0,-1.95635 0.62603,-3.812089 0.63721,-1.855739 1.79985,-3.342566 1.17381,-1.486827 2.79478,-2.36998 1.62098,-0.883153 3.59969,-0.883153 1.90046,0 3.27549,0.860795 1.38622,0.849615 2.13522,2.36998 0.749,1.520364 0.749,3.54379 0,1.967533 -0.63721,3.823273 -0.62603,1.84456 -1.79984,3.33138 -1.17381,1.48683 -2.79479,2.36998 -1.6098,0.87198 -3.58851,0.87198 z m 0.0559,-1.43093 q 1.65451,0 2.99601,-0.76019 1.3415,-0.76018 2.29173,-2.04578 0.9614,-1.29678 1.46446,-2.88422 0.51425,-1.59862 0.51425,-3.253134 0,-1.71041 -0.60368,-2.906579 -0.59249,-1.196169 -1.65451,-1.822202 -1.06202,-0.637211 -2.45942,-0.637211 -1.66569,0 -3.00719,0.771361 -1.3415,0.760182 -2.29172,2.056964 -0.95023,1.296781 -1.46447,2.895401 -0.50306,1.58744 -0.50306,3.24195 0,1.68805 0.59249,2.88422 0.5925,1.19617 1.65452,1.83338 1.07319,0.62604 2.47059,0.62604 z m 9.9718,1.17381 2.76125,-16.656937 h 1.52037 l -2.53767,15.293077 h 8.2055 l -0.22359,1.36386 z m 17.21589,0.25712 q -1.79984,0 -3.04073,-0.62604 -1.2297,-0.63721 -1.77748,-1.78866 -0.54778,-1.16263 -0.3242,-2.72771 h 1.52037 q -0.15651,1.17381 0.22358,2.02342 0.38009,0.83844 1.25207,1.28561 0.88315,0.44716 2.20229,0.44716 1.31914,0 2.36998,-0.42481 1.05084,-0.4248 1.72159,-1.17381 0.67075,-0.76018 0.83843,-1.7663 0.12297,-0.749 -0.12297,-1.29678 -0.24594,-0.55896 -0.92787,-0.97259 -0.68192,-0.42481 -1.87809,-0.77136 l -1.78867,-0.51424 q -2.25819,-0.62603 -3.17488,-1.66569 -0.91669,-1.039666 -0.64839,-2.69418 0.22359,-1.341498 1.06202,-2.358801 0.84962,-1.017302 2.15758,-1.57626 1.30796,-0.570137 2.91776,-0.570137 1.65451,0 2.7836,0.614854 1.1291,0.603674 1.64334,1.71041 0.52542,1.106736 0.33537,2.593562 h -1.48682 q 0.15651,-1.632155 -0.73783,-2.571204 -0.89433,-0.950228 -2.63828,-0.950228 -1.16263,0 -2.14639,0.424808 -0.97259,0.413628 -1.62098,1.140273 -0.63721,0.726645 -0.79372,1.665694 -0.11179,0.693107 0.13415,1.218527 0.25712,0.52542 0.92787,0.927869 0.67075,0.402453 1.81102,0.726643 l 1.8222,0.51424 q 1.11792,0.31302 1.91164,0.74901 0.79372,0.4248 1.27442,0.98376 0.4807,0.54778 0.64839,1.25207 0.16769,0.6931 0.0335,1.54272 -0.23476,1.37503 -1.11792,2.42587 -0.88315,1.03967 -2.25818,1.62098 -1.37504,0.58132 -3.10781,0.58132 z m 8.42908,-0.25712 2.76125,-16.656937 h 10.57547 l -0.22358,1.375035 h -9.06629 l -1.00612,6.081462 h 8.35082 l -0.23476,1.36385 h -8.33965 l -1.07319,6.47273 h 9.05511 l -0.22359,1.36386 z m 14.48818,-15.293081 0.22359,-1.363856 h 12.62126 l -0.23477,1.363856 h -5.54485 l -2.52649,15.293081 h -1.50919 l 2.52649,-15.293081 z"
     id="text5"
     style="font-style:italic;font-weight:300;font-size:22.8949px;font-family:'Adwaita Sans';-inkscape-font-specification:'Adwaita Sans Light Italic';fill:#3f3f3f;stroke-width:17.8472"
     aria-label="TOOLSET" /></svg>
