<?xml version="1.0" encoding="UTF-8" standalone="no"?>
<!-- Created with Inkscape (http://www.inkscape.org/) -->

<svg
   width="700.771mm"
   height="186.79584mm"
   viewBox="0 0 700.77099 186.79584"
   version="1.1"
   id="svg1"
   xml:space="preserve"
   sodipodi:docname="prism.svg"
   inkscape:version="1.4.3 (0d15f75042, 2025-12-25)"
   xmlns:inkscape="http://www.inkscape.org/namespaces/inkscape"
   xmlns:sodipodi="http://sodipodi.sourceforge.net/DTD/sodipodi-0.dtd"
   xmlns:xlink="http://www.w3.org/1999/xlink"
   xmlns="http://www.w3.org/2000/svg"
   xmlns:svg="http://www.w3.org/2000/svg"><sodipodi:namedview
     id="namedview1"
     pagecolor="#ffffff"
     bordercolor="#000000"
     borderopacity="0.25"
     inkscape:showpageshadow="2"
     inkscape:pageopacity="0.0"
     inkscape:pagecheckerboard="0"
     inkscape:deskcolor="#d1d1d1"
     inkscape:document-units="mm"
     showgrid="false"
     inkscape:zoom="0.33448743"
     inkscape:cx="1243.694"
     inkscape:cy="579.99189"
     inkscape:window-width="1920"
     inkscape:window-height="1025"
     inkscape:window-x="0"
     inkscape:window-y="0"
     inkscape:window-maximized="1"
     inkscape:current-layer="svg1" /><defs
     id="defs1"><linearGradient
       id="linearGradient3"><stop
         style="stop-color:#003380;stop-opacity:1;"
         offset="0"
         id="stop3" /><stop
         style="stop-color:#001f4c;stop-opacity:1;"
         offset="1"
         id="stop4" /></linearGradient><linearGradient
       xlink:href="#linearGradient3"
       id="linearGradient4"
       x1="87.3125"
       y1="88.106255"
       x2="143.93333"
       y2="227.80624"
       gradientUnits="userSpaceOnUse"
       gradientTransform="matrix(1.2214533,0,0,1.2214533,-27.793151,-106.64814)" /></defs><rect
     style="fill:url(#linearGradient4);stroke-width:5.37438"
     id="rect2"
     width="186.79584"
     height="186.79584"
     x="-2.7877655e-07"
     y="1.25625e-06"
     ry="19.116642" /><g
     id="g3"
     transform="matrix(1.141604,0,0,1.141604,5.4476929,-88.664049)"><path
       style="font-weight:800;font-size:42.1646px;font-family:'Adwaita Sans';-inkscape-font-specification:'Adwaita Sans Ultra-Bold';fill:#00193f;fill-opacity:1;stroke-width:111.873"
       d="m 84.961149,220.13818 -18.166967,-69.989 -53.996331,32.89636 z"
       id="path3"
       aria-label="P" /><path
       style="font-weight:800;font-size:48.9911px;font-family:'Adwaita Sans';-inkscape-font-specification:'Adwaita Sans Ultra-Bold';fill:#7f7f7f;fill-opacity:1;stroke-width:111.873"
       d="m 96.314214,105.22511 c 5.706326,3.31113 10.519536,8.03353 14.439596,14.1672 3.96026,6.13369 6.75376,13.40727 8.38052,21.82075 1.61626,8.35921 1.63024,15.60564 0.0419,21.73934 -1.58835,6.13369 -7.25615,6.38533 -11.7118,9.75071 -4.41546,3.36538 -18.84319,5.85763 -19.377894,-1.03733 l -1.06718,-13.76147 c -0.223806,-2.88628 5.256603,-0.67851 7.084988,-2.03553 1.868635,-1.35701 3.144535,-3.28397 3.827788,-5.78087 0.672737,-2.55119 0.683751,-5.50947 0.0331,-8.87485 -0.671682,-3.47395 -1.826686,-6.43223 -3.464982,-8.87486 -1.648783,-2.49687 -3.669864,-4.42383 -6.063242,-5.78084 -2.363645,-1.4113 -4.992928,-2.11696 -7.887878,-2.11696 0,0 10.048251,-22.58067 15.765092,-19.21529 z"
       id="path2"
       aria-label="P" /><path
       style="font-weight:800;font-size:48.9911px;font-family:'Adwaita Sans';-inkscape-font-specification:'Adwaita Sans Ultra-Bold';fill:#b3b3b3;stroke-width:111.873"
       d="M 84.958221,220.13751 61.502611,98.820657 h 36.789746 c 6.915663,0 13.231923,1.682703 18.948753,5.048083 5.70634,3.31113 10.51954,8.03352 14.4396,14.16721 3.96027,6.13368 6.75377,13.40726 8.38053,21.82073 1.61626,8.35921 1.63022,15.60566 0.0419,21.73935 -1.58836,6.13369 -4.61033,10.88324 -9.06597,14.24862 -4.41546,3.36538 -10.08099,5.04808 -16.99665,5.04808 H 89.674804 l -4.707095,-24.34479 h 22.978511 c 2.89495,0 5.25661,-0.67852 7.08499,-2.03553 1.86863,-1.35701 3.14455,-3.28396 3.82778,-5.78086 0.67274,-2.55119 0.68375,-5.50949 0.033,-8.87487 -0.67169,-3.47396 -1.82668,-6.43223 -3.46498,-8.87484 -1.64879,-2.4969 -3.66986,-4.42385 -6.06325,-5.78086 -2.36364,-1.4113 -4.99293,-2.11695 -7.88787,-2.11695 H 87.905947 l 18.765403,97.05348 z"
       id="text1"
       aria-label="P" /><path
       style="font-weight:800;font-size:42.1646px;font-family:'Adwaita Sans';-inkscape-font-specification:'Adwaita Sans Ultra-Bold';fill:#7f7f7f;fill-opacity:1;stroke-width:111.873"
       d="M 84.961149,220.13818 61.502515,98.82001 44.547851,181.9872 Z"
       id="text2"
       aria-label="P" /></g><path
     style="font-weight:800;font-size:122.13px;font-family:'Adwaita Sans';-inkscape-font-specification:'Adwaita Sans Ultra-Bold';fill:#333333;stroke-width:95.2038"
     d="M 197.82534,113.78428 V 24.929935 h 36.61514 q 10.31665,0 17.83051,3.697295 7.51385,3.637661 11.56895,10.376279 4.11473,6.738618 4.11473,15.981855 0,9.004702 -4.29363,15.624053 -4.29363,6.559716 -12.04603,10.137743 -7.75239,3.518394 -18.3672,3.518394 H 210.88514 V 67.389192 h 22.12413 q 4.29364,0 7.39459,-1.550478 3.16059,-1.550479 4.83034,-4.353267 1.72938,-2.802788 1.72938,-6.500083 0,-3.816562 -1.72938,-6.559716 -1.66975,-2.802788 -4.83034,-4.353267 -3.10095,-1.550478 -7.45422,-1.550478 H 219.2935 v 71.262377 z m 49.79421,0 -19.79842,-40.252808 h 22.18377 l 20.27549,40.252808 z M 299.62022,24.929935 V 113.78428 H 278.15205 V 24.929935 Z m 46.81252,90.285555 q -11.80749,0 -20.09658,-3.57803 -8.2891,-3.63766 -12.64237,-10.49554 -4.35326,-6.917524 -4.35326,-16.697465 h 20.45439 q 0.11926,4.233999 2.20645,7.275322 2.08718,3.041324 5.78447,4.651436 3.75693,1.610112 8.8258,1.610112 4.59181,0 7.9313,-1.192676 3.39912,-1.192675 5.24777,-3.339492 1.90828,-2.20645 1.90828,-5.128505 0,-2.50462 -1.61011,-4.353267 -1.55048,-1.908281 -4.9496,-3.279858 -3.3395,-1.431211 -8.70654,-2.564253 l -9.12397,-1.848648 q -13.00016,-2.68352 -19.61951,-9.004702 -6.61935,-6.380815 -6.61935,-16.101122 0,-8.289097 4.35326,-14.491011 4.4129,-6.201914 12.28456,-9.660673 7.87166,-3.518394 18.30758,-3.518394 10.67444,0 18.3672,3.518394 7.69276,3.458759 11.92676,9.958842 4.29363,6.500083 4.5918,15.624053 h -19.85805 q -0.41744,-5.545943 -4.4129,-8.706533 -3.93583,-3.160591 -10.31665,-3.160591 -3.99546,0 -7.15605,1.192676 -3.10096,1.192675 -4.88997,3.339492 -1.72938,2.087182 -1.72938,4.88997 0,2.444986 1.49084,4.233999 1.49085,1.72938 4.65144,3.041323 3.16059,1.311944 8.22946,2.325718 l 7.81203,1.550479 q 7.39459,1.490844 12.702,3.756928 5.36704,2.20645 8.76616,5.307407 3.45876,3.100957 5.06887,7.215689 1.66975,4.055097 1.66975,9.183603 0,8.945068 -4.35327,15.325887 -4.35326,6.32118 -12.52309,9.7203 -8.16983,3.39913 -19.61952,3.39913 z m 46.21619,-1.43121 V 24.929935 h 31.72518 l 11.44968,34.885766 q 0.95414,3.160591 2.26609,7.752392 1.31194,4.591802 2.68352,9.660674 1.37157,5.009238 2.56425,9.60104 1.19268,4.591801 1.90828,7.692758 h -5.42667 q 0.7156,-3.100957 1.84864,-7.692758 1.19268,-4.591802 2.56426,-9.60104 1.37157,-5.068872 2.62388,-9.660674 1.31195,-4.591801 2.20645,-7.752392 l 11.33042,-34.885766 h 31.78481 V 113.78428 H 471.127 V 75.320486 q 0,-2.98169 0.11926,-7.454224 0.11927,-4.472534 0.23854,-9.660673 0.1789,-5.18814 0.29817,-10.495547 0.1789,-5.307407 0.1789,-10.018476 h 2.50462 q -1.31195,4.949604 -2.80279,10.316645 -1.49084,5.367041 -2.92206,10.55518 -1.37157,5.128506 -2.62388,9.481773 -1.25231,4.293632 -2.20645,7.275322 L 451.14968,113.78428 H 433.79624 L 420.79608,75.320486 q -0.89451,-2.98169 -2.20645,-7.275322 -1.31194,-4.353267 -2.74316,-9.481773 -1.43121,-5.188139 -2.98168,-10.55518 -1.49085,-5.367041 -2.86243,-10.316645 h 2.86243 q 0.0596,4.711069 0.1789,10.018476 0.11926,5.307407 0.23853,10.495547 0.1789,5.188139 0.29817,9.660673 0.11927,4.472534 0.11927,7.454224 v 38.463794 z"
     id="text4"
     aria-label="RISM" /><path
     style="font-weight:800;font-size:54.3674px;font-family:'Adwaita Sans';-inkscape-font-specification:'Adwaita Sans Ultra-Bold';fill:#333333;stroke-width:42.3809"
     d="m 197.82534,162.65999 v -39.55441 h 14.12278 l 5.09695,15.52975 q 0.42474,1.40697 1.00877,3.45106 0.58402,2.04408 1.19459,4.30054 0.61058,2.22992 1.14151,4.274 0.53093,2.04409 0.84949,3.42451 h -2.41574 q 0.31856,-1.38042 0.82294,-3.42451 0.53094,-2.04408 1.14151,-4.274 0.61057,-2.25646 1.16805,-4.30054 0.58402,-2.04409 0.98222,-3.45106 l 5.04385,-15.52975 h 14.14933 v 39.55441 h -9.37094 v -17.12255 q 0,-1.32733 0.0531,-3.31832 0.0531,-1.99099 0.10618,-4.30055 0.0796,-2.30955 0.13274,-4.6722 0.0796,-2.36264 0.0796,-4.45982 h 1.11495 q -0.58402,2.20337 -1.24769,4.59256 -0.66366,2.38919 -1.30078,4.69874 -0.61057,2.28301 -1.16805,4.22091 -0.55748,1.91135 -0.98222,3.23868 l -5.68097,17.12255 h -7.72506 l -5.78715,-17.12255 q -0.3982,-1.32733 -0.98222,-3.23868 -0.58403,-1.9379 -1.22115,-4.22091 -0.63711,-2.30955 -1.32733,-4.69874 -0.66366,-2.38919 -1.27423,-4.59256 h 1.27423 q 0.0265,2.09718 0.0796,4.45982 0.0531,2.36265 0.10619,4.6722 0.0796,2.30956 0.13273,4.30055 0.0531,1.99099 0.0531,3.31832 v 17.12255 z m 67.16286,0.63712 q -5.36241,0 -9.66296,-2.41574 -4.274,-2.44229 -6.76938,-7.0083 -2.49538,-4.56601 -2.49538,-10.96374 0,-6.45082 2.49538,-11.01683 2.49538,-4.59256 6.76938,-7.0083 4.30055,-2.41574 9.66296,-2.41574 5.36241,0 9.63641,2.41574 4.274,2.41574 6.76938,7.0083 2.49537,4.56601 2.49537,11.01683 0,6.42427 -2.49537,10.99029 -2.49538,4.56601 -6.76938,6.98175 -4.274,2.41574 -9.63641,2.41574 z m 0,-8.33563 q 2.84048,0 4.91111,-1.40697 2.09718,-1.43351 3.23869,-4.11472 1.1415,-2.70775 1.1415,-6.53046 0,-3.84925 -1.1415,-6.557 -1.14151,-2.70776 -3.23869,-4.11473 -2.07063,-1.43351 -4.91111,-1.43351 -2.81394,0 -4.91112,1.43351 -2.09718,1.40697 -3.26523,4.11473 -1.1415,2.70775 -1.1415,6.557 0,3.82271 1.1415,6.53046 1.16805,2.68121 3.26523,4.11472 2.09718,1.40697 4.91112,1.40697 z m 37.51032,7.69851 h -10.51244 v -7.96398 h 10.0346 q 3.63689,0 5.97299,-1.32733 2.36264,-1.32732 3.50414,-3.95544 1.14151,-2.65465 1.14151,-6.53046 0,-3.90234 -1.16805,-6.53045 -1.14151,-2.62812 -3.5307,-3.95545 -2.36264,-1.32732 -6.02607,-1.32732 h -10.0877 v -7.96398 h 10.67172 q 6.02608,0 10.45936,2.44229 4.45982,2.41573 6.87556,6.84901 2.41574,4.43328 2.41574,10.4859 0,6.05263 -2.41574,10.4859 -2.38919,4.43328 -6.82247,6.87557 -4.40673,2.41574 -10.51245,2.41574 z m -5.12349,-39.55441 v 39.55441 h -9.55677 v -39.55441 z m 28.80303,39.55441 v -39.55441 h 29.46671 v 8.12325 h -19.90994 v 7.61887 h 18.39679 v 7.88434 h -18.39679 v 7.80469 h 19.90994 v 8.12326 z m 33.66108,0 v -39.55441 h 9.55677 v 31.43115 h 17.52074 v 8.12326 z m 59.4378,0.63712 q -5.41551,0 -9.7426,-2.41574 -4.30055,-2.44229 -6.79593,-7.0083 -2.46883,-4.56601 -2.46883,-10.96374 0,-6.45082 2.46883,-11.01683 2.49538,-4.59256 6.79593,-7.0083 4.32709,-2.41574 9.7426,-2.41574 3.61033,0 6.68973,1.08841 3.07941,1.06187 5.41551,3.05286 2.36264,1.96445 3.82271,4.72529 1.4866,2.76085 1.9379,6.18535 h -9.63641 q -0.29202,-1.59279 -1.00877,-2.84048 -0.69022,-1.24769 -1.72553,-2.09718 -1.03532,-0.87604 -2.38919,-1.32733 -1.35388,-0.45129 -2.94667,-0.45129 -3.05286,0 -5.17659,1.46006 -2.12373,1.46006 -3.26523,4.16781 -1.11495,2.70776 -1.11495,6.47737 0,3.74307 1.11495,6.45082 1.11496,2.68121 3.23868,4.14127 2.15028,1.46006 5.20314,1.46006 1.59279,0 2.92012,-0.42475 1.35387,-0.45129 2.38919,-1.32732 1.03532,-0.87604 1.72553,-2.09719 0.71676,-1.24768 1.06186,-2.81393 h 9.60987 q -0.4513,3.39796 -1.9379,6.1588 -1.46007,2.76085 -3.82271,4.75184 -2.36265,1.96445 -5.44205,3.02631 -3.05286,1.06187 -6.66319,1.06187 z m 21.7151,-0.63712 v -39.55441 h 9.55677 v 15.37047 h 15.05192 v -15.37047 h 9.55677 v 39.55441 h -9.55677 v -16.06068 h -15.05192 v 16.06068 z m 39.26241,0 v -39.55441 h 29.46671 v 8.12325 h -19.90994 v 7.61887 H 508.208 v 7.88434 h -18.39678 v 7.80469 h 19.90994 v 8.12326 z m 51.50035,0.63712 q -5.41551,0 -9.7426,-2.41574 -4.30055,-2.44229 -6.79593,-7.0083 -2.46883,-4.56601 -2.46883,-10.96374 0,-6.45082 2.46883,-11.01683 2.49538,-4.59256 6.79593,-7.0083 4.32709,-2.41574 9.7426,-2.41574 3.61033,0 6.68973,1.08841 3.07941,1.06187 5.41551,3.05286 2.36264,1.96445 3.8227,4.72529 1.48661,2.76085 1.93791,6.18535 h -9.63641 q -0.29202,-1.59279 -1.00877,-2.84048 -0.69022,-1.24769 -1.72553,-2.09718 -1.03532,-0.87604 -2.38919,-1.32733 -1.35388,-0.45129 -2.94668,-0.45129 -3.05285,0 -5.17658,1.46006 -2.12373,1.46006 -3.26523,4.16781 -1.11496,2.70776 -1.11496,6.47737 0,3.74307 1.11496,6.45082 1.11496,2.68121 3.23868,4.14127 2.15028,1.46006 5.20313,1.46006 1.5928,0 2.92013,-0.42475 1.35387,-0.45129 2.38919,-1.32732 1.03532,-0.87604 1.72553,-2.09719 0.71676,-1.24768 1.06186,-2.81393 h 9.60987 q -0.4513,3.39796 -1.93791,6.1588 -1.46006,2.76085 -3.8227,4.75184 -2.36265,1.96445 -5.44205,3.02631 -3.05286,1.06187 -6.66319,1.06187 z m 28.69686,-7.64542 v -11.70704 q 1.32732,-1.67244 2.6812,-3.34487 1.35388,-1.67244 2.68121,-3.31832 1.35387,-1.67244 2.70775,-3.34487 l 8.84001,-10.83101 h 11.2292 l -16.61816,19.80375 h -0.82294 z m -6.98176,7.0083 v -39.55441 h 9.55677 v 9.76914 10.67173 4.51292 14.60062 z m 24.74142,0 -10.75137,-16.96327 5.73407,-7.19412 15.95449,24.15739 z m 13.64497,0 v -39.55441 h 29.4667 v 8.12325 h -19.90993 v 7.61887 h 18.39678 v 7.88434 h -18.39678 v 7.80469 h 19.90993 v 8.12326 z m 33.66104,0 v -39.55441 h 16.2996 q 4.59256,0 7.93743,1.64589 3.34487,1.61934 5.15004,4.6191 1.83171,2.99977 1.83171,7.11449 0,4.00853 -1.91135,6.9552 -1.91136,2.92013 -5.36241,4.51292 -3.45106,1.56625 -8.17635,1.56625 h -9.95497 v -7.51268 h 9.84878 q 1.91136,0 3.29178,-0.69021 1.40697,-0.69022 2.15027,-1.9379 0.76985,-1.24769 0.76985,-2.89358 0,-1.69898 -0.76985,-2.92013 -0.7433,-1.24769 -2.15027,-1.9379 -1.38042,-0.69021 -3.31832,-0.69021 h -6.07917 v 31.72317 z m 22.1664,0 -8.81347,-17.91894 h 9.87533 l 9.02584,17.91894 z"
     id="text5"
     aria-label="MODEL CHECKER" /></svg>
