<?xml version="1.0" encoding="UTF-8" standalone="no"?>
<!-- Generator: Adobe Illustrator 22.0.1, SVG Export Plug-In . SVG Version: 6.00 Build 0)  -->

<svg
   version="1.1"
   id="Layer_1"
   x="0px"
   y="0px"
   viewBox="0 0 85.903 20.459999"
   xml:space="preserve"
   sodipodi:docname="storm.svg"
   inkscape:version="1.4.3 (0d15f75042, 2025-12-25)"
   width="85.903"
   height="20.459999"
   xmlns:inkscape="http://www.inkscape.org/namespaces/inkscape"
   xmlns:sodipodi="http://sodipodi.sourceforge.net/DTD/sodipodi-0.dtd"
   xmlns="http://www.w3.org/2000/svg"
   xmlns:svg="http://www.w3.org/2000/svg"><defs
   id="defs1" /><sodipodi:namedview
   id="namedview1"
   pagecolor="#ffffff"
   bordercolor="#000000"
   borderopacity="0.25"
   inkscape:showpageshadow="2"
   inkscape:pageopacity="0.0"
   inkscape:pagecheckerboard="0"
   inkscape:deskcolor="#d1d1d1"
   inkscape:zoom="6.8"
   inkscape:cx="17.426471"
   inkscape:cy="32.5"
   inkscape:window-width="1920"
   inkscape:window-height="1025"
   inkscape:window-x="0"
   inkscape:window-y="0"
   inkscape:window-maximized="1"
   inkscape:current-layer="Layer_1" />
<path
   d="m 0,9.5 c 0,1.11 0.33,2.1 0.99,2.97 0.66,0.87 1.52,1.47 2.58,1.79 l -0.66,1.68 c -0.03,0.14 0.02,0.22 0.14,0.22 H 5.18 L 4.2,20.46 H 4.48 L 8.4,14.71 C 8.44,14.67 8.44,14.62 8.41,14.57 8.38,14.52 8.33,14.5 8.26,14.5 H 6.08 L 8.56,9.86 C 8.63,9.72 8.58,9.64 8.42,9.64 H 5.48 C 5.39,9.64 5.31,9.69 5.25,9.79 L 4.18,12.66 C 3.47,12.48 2.88,12.09 2.41,11.5 1.94,10.91 1.71,10.24 1.71,9.49 1.71,8.66 1.99,7.94 2.56,7.32 3.13,6.71 3.83,6.35 4.66,6.25 L 5.19,6.18 C 5.32,6.18 5.39,6.12 5.39,6 L 5.46,5.49 C 5.57,4.41 6.02,3.5 6.83,2.77 7.64,2.04 8.59,1.67 9.68,1.67 c 1.09,0 2.04,0.37 2.85,1.1 0.82,0.73 1.28,1.64 1.4,2.72 L 14,6.07 c 0,0.11 0.06,0.17 0.18,0.17 h 1.6 c 0.91,0 1.68,0.32 2.32,0.95 0.64,0.63 0.97,1.4 0.97,2.28 0,0.85 -0.3,1.59 -0.89,2.21 -0.59,0.62 -1.33,0.97 -2.2,1.04 -0.13,0 -0.2,0.06 -0.2,0.18 v 1.37 c 0,0.11 0.07,0.17 0.2,0.17 1.33,-0.04 2.46,-0.55 3.39,-1.51 0.93,-0.96 1.39,-2.11 1.39,-3.45 0,-0.9 -0.22,-1.73 -0.67,-2.49 C 19.65,6.23 19.04,5.63 18.28,5.19 17.51,4.75 16.68,4.53 15.78,4.53 H 15.47 C 15.14,3.2 14.43,2.11 13.36,1.27 12.29,0.43 11.06,0 9.68,0 8.27,0 7.01,0.44 5.92,1.31 4.83,2.18 4.13,3.3 3.82,4.67 2.71,4.93 1.8,5.5 1.08,6.4 0.36,7.3 0,8.35 0,9.5 Z m 8.14,9.71 c 0,0.39 0.19,0.65 0.58,0.77 0.01,0 0.05,0 0.11,0.01 C 8.89,20 8.94,20 8.97,20 9.14,20 9.3,19.95 9.46,19.85 9.62,19.75 9.73,19.59 9.78,19.37 l 2.25,-8.69 C 12.09,10.44 12.07,10.23 11.96,10.03 11.85,9.84 11.69,9.71 11.46,9.64 11.29,9.62 11.2,9.61 11.2,9.61 c -0.16,0 -0.32,0.05 -0.47,0.15 -0.15,0.1 -0.26,0.25 -0.31,0.45 l -2.26,8.72 c -0.01,0.1 -0.02,0.19 -0.02,0.28 z m 4.16,-3.06 c 0,0.13 0.03,0.26 0.1,0.38 0.14,0.22 0.31,0.37 0.51,0.44 0.11,0.03 0.21,0.05 0.3,0.05 0.09,0 0.2,-0.02 0.32,-0.08 0.21,-0.09 0.35,-0.28 0.42,-0.57 l 1.44,-5.67 c 0.03,-0.14 0.05,-0.23 0.05,-0.27 0,-0.15 -0.05,-0.3 -0.16,-0.45 C 15.17,9.83 15.02,9.72 14.82,9.66 14.65,9.64 14.56,9.63 14.56,9.63 c -0.17,0 -0.33,0.05 -0.47,0.15 -0.14,0.1 -0.24,0.25 -0.3,0.45 l -1.46,5.7 c 0,0.02 0,0.05 -0.01,0.11 -0.02,0.05 -0.02,0.08 -0.02,0.11 z"
   id="path1"
   style="fill:#2c3e50;fill-opacity:1" />
<path
   d="m 33.96418,4.9766877 q -0.096,0.1599997 -0.213333,0.2453329 -0.106666,0.074667 -0.266666,0.074667 -0.181333,0 -0.426666,-0.1813331 -0.245333,-0.181333 -0.618666,-0.394666 -0.362666,-0.2239997 -0.885331,-0.4053327 -0.512,-0.1813331 -1.247999,-0.1813331 -0.693332,0 -1.226664,0.1919997 -0.522666,0.1813331 -0.885332,0.5013326 -0.352,0.3199995 -0.533333,0.7573321 -0.181333,0.426666 -0.181333,0.9279986 0,0.6399989 0.309333,1.0666649 0.32,0.4159994 0.831999,0.7146656 0.522666,0.2986662 1.173331,0.5226658 0.661333,0.213333 1.343998,0.4479993 0.693332,0.2346663 1.343998,0.5333325 0.661332,0.2879996 1.173332,0.7359986 0.522665,0.448 0.831998,1.098665 0.32,0.650666 0.32,1.599998 0,1.002665 -0.341333,1.887997 -0.341333,0.874665 -1.002665,1.525331 -0.650666,0.650665 -1.610664,1.023998 -0.949332,0.373333 -2.16533,0.373333 -1.493331,0 -2.709329,-0.533333 -1.215998,-0.543999 -2.079997,-1.461331 l 0.597332,-0.981332 q 0.08533,-0.117333 0.202667,-0.191999 0.128,-0.08533 0.277333,-0.08533 0.138666,0 0.309332,0.117333 0.181334,0.106666 0.405333,0.277333 0.224,0.170666 0.511999,0.373332 0.288,0.202667 0.650666,0.373333 0.373333,0.170666 0.842665,0.288 0.469333,0.106666 1.055999,0.106666 0.735999,0 1.311998,-0.202666 0.575999,-0.202667 0.970665,-0.565333 0.405332,-0.373332 0.618665,-0.885332 0.213333,-0.511999 0.213333,-1.141331 0,-0.693332 -0.319999,-1.130665 -0.309333,-0.447999 -0.821332,-0.746666 -0.511999,-0.298666 -1.173332,-0.501332 -0.661332,-0.213333 -1.343997,-0.426666 -0.682666,-0.224 -1.343998,-0.511999 Q 27.201524,9.9260132 26.689525,9.4673473 26.177526,9.0086813 25.857527,8.3260157 25.548194,7.6326835 25.548194,6.6193518 q 0,-0.8106654 0.309333,-1.5679976 0.319999,-0.7573321 0.917331,-1.3439978 0.607999,-0.5866658 1.482665,-0.9386652 0.885332,-0.3519995 2.026663,-0.3519995 1.279998,0 2.32533,0.4053327 1.055998,0.4053327 1.855997,1.1733315 z m 6.144,13.0666463 q -1.279998,0 -1.97333,-0.714666 -0.682665,-0.714665 -0.682665,-2.058663 V 8.6566819 h -1.301332 q -0.170666,0 -0.287999,-0.096 Q 35.745521,8.4540155 35.745521,8.2406825 V 7.4833504 l 1.770664,-0.2239997 0.437332,-3.3386613 q 0.032,-0.1599998 0.138667,-0.2559996 0.117333,-0.1066665 0.298666,-0.1066665 h 0.959998 V 7.280684 h 3.125329 v 1.3759979 h -3.125329 v 6.4853231 q 0,0.682666 0.330666,1.013332 0.330667,0.330666 0.853332,0.330666 0.298667,0 0.512,-0.07467 0.223999,-0.08533 0.383999,-0.181333 0.16,-0.096 0.266666,-0.170666 0.117333,-0.08533 0.202667,-0.08533 0.149333,0 0.266666,0.181333 l 0.554666,0.906665 q -0.490666,0.458666 -1.183998,0.725332 -0.693333,0.256 -1.429332,0.256 z M 48.940144,6.8966846 q 1.183998,0 2.13333,0.3946661 0.949332,0.394666 1.621331,1.1199982 0.671999,0.7253322 1.023998,1.7599971 0.362666,1.023999 0.362666,2.29333 0,1.279998 -0.362666,2.303996 -0.351999,1.023999 -1.023998,1.749331 -0.671999,0.725332 -1.621331,1.119998 -0.949332,0.383999 -2.13333,0.383999 -1.194665,0 -2.154663,-0.383999 -0.949332,-0.394666 -1.621331,-1.119998 -0.671999,-0.725332 -1.034665,-1.749331 -0.352,-1.023998 -0.352,-2.303996 0,-1.269331 0.352,-2.29333 0.362666,-1.0346649 1.034665,-1.7599971 0.671999,-0.7253322 1.621331,-1.1199982 0.959998,-0.3946661 2.154663,-0.3946661 z m 0,9.6426514 q 1.599997,0 2.38933,-1.066665 0.789332,-1.077332 0.789332,-2.997328 0,-1.930664 -0.789332,-3.0079957 -0.789333,-1.0773317 -2.38933,-1.0773317 -0.810665,0 -1.418664,0.2773329 -0.597333,0.2773329 -1.002666,0.7999988 -0.394666,0.5226658 -0.597332,1.2906647 -0.192,0.757332 -0.192,1.717331 0,1.919996 0.789332,2.997328 0.799999,1.066665 2.42133,1.066665 z m 9.343974,-7.306655 q 0.512,-1.1093316 1.258665,-1.7279973 0.746666,-0.6293324 1.823997,-0.6293324 0.341333,0 0.650666,0.074667 0.319999,0.074667 0.565332,0.2346663 l -0.138666,1.4186644 q -0.064,0.2666663 -0.32,0.2666663 -0.149333,0 -0.437332,-0.064 -0.288,-0.064 -0.650666,-0.064 -0.511999,0 -0.917332,0.1493331 -0.394666,0.1493331 -0.714665,0.4479993 -0.309333,0.2879995 -0.565333,0.7253325 -0.245333,0.426666 -0.447999,0.981331 v 6.826656 h -1.90933 V 7.067351 h 1.087998 q 0.309333,0 0.426666,0.1173332 0.117333,0.1173331 0.16,0.4053327 z m 5.962664,8.639986 V 7.067351 h 1.141332 q 0.405332,0 0.501332,0.3946661 l 0.138667,1.1093316 q 0.597332,-0.7359989 1.343998,-1.2053315 0.746665,-0.4693326 1.727997,-0.4693326 1.087998,0 1.759997,0.6079991 0.682666,0.607999 0.981332,1.6426641 0.234666,-0.5866658 0.597332,-1.0133318 0.373333,-0.426666 0.831999,-0.7039989 0.458666,-0.2773329 0.970665,-0.4053327 0.522666,-0.1279998 1.055998,-0.1279998 0.853332,0 1.514665,0.2773329 0.671999,0.2666663 1.130664,0.7893321 0.469333,0.5226659 0.714666,1.2906647 0.245333,0.7573317 0.245333,1.7386637 v 6.879989 h -1.90933 v -6.879989 q 0,-1.2693311 -0.554666,-1.9199968 -0.554666,-0.6613323 -1.599998,-0.6613323 -0.469332,0 -0.895998,0.1706664 -0.416,0.1599998 -0.735999,0.4799993 -0.32,0.3199995 -0.511999,0.8106653 -0.181333,0.4799991 -0.181333,1.1199981 v 6.879989 h -1.909331 v -6.879989 q 0,-1.3013311 -0.522665,-1.9413301 -0.522666,-0.639999 -1.525331,-0.639999 -0.703999,0 -1.301332,0.3839994 -0.597332,0.3733328 -1.098665,1.0239984 v 8.0533203 z"
   id="text1"
   style="font-size:21.3333px;font-family:Lato;-inkscape-font-specification:Lato;fill:#2c3e50;stroke-width:16.6299"
   aria-label="Storm" /></svg>
